<?xml version="1.0" encoding="utf-8"?>
<!-- Generator: Adobe Illustrator 21.0.0, SVG Export Plug-In . SVG Version: 6.00 Build 0)  -->
<svg version="1.1" id="Слой_1" xmlns="http://www.w3.org/2000/svg" xmlns:xlink="http://www.w3.org/1999/xlink" x="0px" y="0px"
	 viewBox="0 0 257 46" style="enable-background:new 0 0 257 46;" xml:space="preserve">
<style type="text/css">
	.st0{fill:#7CC0DE;}
	.st1{font-family:'GothamPro-Regular';}
	.st2{font-size:33px;}
</style>
<g id="logo_26_">
	<g>
		<g>
			<g>
				<g>
					<polygon points="77.3,14.5 81.6,14.5 88.7,25.4 95.7,14.5 100,14.5 100,37.6 95.9,37.6 95.9,21.1 88.7,31.9 88.5,31.9 
						81.3,21.1 81.3,37.6 77.3,37.6 					"/>
				</g>
			</g>
			<g>
				<g>
					<path d="M117,14.2c-7.1,0-12.1,5.4-12.1,11.9c0,6.5,4.9,11.9,12,11.9c7.1,0,12.1-5.4,12.1-11.9C129,19.5,124,14.2,117,14.2z
						 M117,34.3c-4.6,0-7.8-3.7-7.8-8.2c0-4.5,3.2-8.2,7.8-8.2c4.6,0,7.8,3.7,7.8,8.2C124.7,30.6,121.5,34.3,117,34.3z"/>
				</g>
			</g>
			<g>
				<g>
					<polygon points="160.9,18.2 153.6,18.2 153.6,14.5 172.3,14.5 172.3,18.3 165,18.3 165,37.6 160.9,37.6 					"/>
				</g>
			</g>
		</g>
		<g>
			<path d="M150.5,32.9c0.6-2.8-0.8-5.4-3.4-6.5l-8.6-4.2c-1.1-0.5-1.4-1.5-1.2-2.3c0.2-0.8,0.8-1.6,2-1.6h10.6v-3.7h-11.3
				c-2.8,0-5.1,1.9-5.7,4.6c-0.6,2.8,0.8,5.4,3.4,6.5l8.6,4.2c1.1,0.5,1.4,1.5,1.2,2.3c-0.2,0.8-0.8,1.6-2,1.6h-10.4v3.7h11
				C147.6,37.6,149.9,35.7,150.5,32.9z"/>
		</g>
	</g>
	<g>
		<path class="st0" d="M53.6,12.8c-1.6-2.7-4.4-4.3-7.5-4.3c-2.3,0-4.4,0.8-5.9,2.3l-6.4-11L29,8l2.7,3.7L33.8,8l3.8,6.5l-3.8,6.5
			L29,12.8c-1.6-2.7-4.4-4.3-7.5-4.3h0c-3.1,0-5.9,1.6-7.5,4.3l-14.5,25l9.9,0.1h0.1c4.4,0,8.5-2.4,10.7-6.2l7.5-13l3.8,6.5l2.4,4.1
			l0.7,1.2l5.7,9.8c-4.4,1.9-8.6,2-12.7,0.1l4.6-7.9l-2.4-4l-7.7,13.4l1.7,1c3.3,2,6.6,3,10.1,3c3.4,0,6.9-1,10.4-2.9l1.8-1
			l-9.7-16.7l3.8-6.5l7.6,13.1c2.2,3.8,6.3,6.2,10.7,6.2h9.9L53.6,12.8z M16.6,29.6c-1.5,2.5-4.2,4.1-7.1,4.1h0l-2.8,0l10.9-18.9
			c0.8-1.4,2.3-2.3,3.9-2.3h0c1.5,0,2.9,0.7,3.8,2L16.6,29.6z M51.1,29.7l-8.7-15.1c0.8-1.3,2.2-2,3.8-2c1.6,0,3.1,0.9,3.9,2.3
			L61,33.8h-2.8C55.3,33.8,52.5,32.2,51.1,29.7z"/>
	</g>
	<g>
		<text transform="matrix(1.13 0 0 1 190.5797 37.5702)" class="st1 st2">app</text>
	</g>
</g>
</svg>
